<mxfile host="app.diagrams.net" modified="2024-03-14T13:43:04.172Z" agent="Mozilla/5.0 (Windows NT 10.0; Win64; x64) AppleWebKit/537.36 (KHTML, like Gecko) Chrome/122.0.0.0 Safari/537.36 Edg/122.0.0.0" version="21.4.0" etag="aA_Ne-QMm_xAbQxYRtgV" type="github">
  <diagram name="第 1 页" id="CbmUh5gqg0IyqH_XHVIY">
    <mxGraphModel>
      <root>
        <mxCell id="0" />
        <mxCell id="1" parent="0" />
      </root>
    </mxGraphModel>
  </diagram>
</mxfile>
